<svg xmlns="http://www.w3.org/2000/svg" viewBox="0 0 500 500"><g id="freepik--background-simple--inject-10"><path d="M467.34,169.9c-16.12-52.66-57.54-94.81-106.56-117-46.76-21.2-105.88-31.67-150.19,1-29.18,21.48-45.71,55.9-72.42,80-13.28,12-27.81,15.87-43.61,23C56.06,174.31,23.84,208,21.18,252.4,16.75,326.67,75.62,378,141.31,394.89c86.81,22.26,151.7,22.26,211.33-1.78,31-12.49,62.48-28.29,84.8-54.15,33.76-39.11,43.09-94.66,35.41-144.89A170.25,170.25,0,0,0,467.34,169.9Z" style="fill:#FFC100"></path><path d="M467.34,169.9c-16.12-52.66-57.54-94.81-106.56-117-46.76-21.2-105.88-31.67-150.19,1-29.18,21.48-45.71,55.9-72.42,80-13.28,12-27.81,15.87-43.61,23C56.06,174.31,23.84,208,21.18,252.4,16.75,326.67,75.62,378,141.31,394.89c86.81,22.26,151.7,22.26,211.33-1.78,31-12.49,62.48-28.29,84.8-54.15,33.76-39.11,43.09-94.66,35.41-144.89A170.25,170.25,0,0,0,467.34,169.9Z" style="fill:#fff;opacity:0.8"></path></g><g id="freepik--Trees--inject-10"><path d="M65.47,308.83s44.28,4.38,66.72,31.83c0,0,23.71-31.8,66.3-31.15a86.07,86.07,0,1,0-133-.61Z" style="fill:#dedede"></path><path d="M174.82,259.05s-26.47,6.27-41.07,27.56l-.84-31,.06.42s14.95-26.91,41.85-35.13c0,0-27.7,6.57-42.06,29.06l-2-75.4-.63,93.47c-14.08-21.4-39.73-27.7-39.73-27.7,22.66,7.18,36.52,28.58,39.69,33.91l-.21,30.79c-14.13-21.1-39.48-27.33-39.48-27.33,22.12,7,35.85,27.56,39.44,33.5l-.58,110.27h7.48l-1.82-92.3c4.83-7.3,18.62-25.53,39.93-32,0,0-25.31,6-40.08,26.18l-.83-30.73C137.55,286.78,151.81,266.08,174.82,259.05Z" style="fill:#263238"></path><path d="M174.82,259.05s-26.47,6.27-41.07,27.56l-.84-31,.06.42s14.95-26.91,41.85-35.13c0,0-27.7,6.57-42.06,29.06l-2-75.4-.63,93.47c-14.08-21.4-39.73-27.7-39.73-27.7,22.66,7.18,36.52,28.58,39.69,33.91l-.21,30.79c-14.13-21.1-39.48-27.33-39.48-27.33,22.12,7,35.85,27.56,39.44,33.5l-.58,110.27h7.48l-1.82-92.3c4.83-7.3,18.62-25.53,39.93-32,0,0-25.31,6-40.08,26.18l-.83-30.73C137.55,286.78,151.81,266.08,174.82,259.05Z" style="fill:#fff;opacity:0.6000000000000001"></path><path d="M309.31,308.83s44.28,4.38,66.72,31.83c0,0,23.71-31.8,66.3-31.15a86.08,86.08,0,1,0-133-.61Z" style="fill:#dedede"></path><path d="M418.66,259.05s-26.47,6.27-41.08,27.56l-.83-31,.06.42s14.95-26.91,41.85-35.13c0,0-27.7,6.57-42.06,29.06l-2-75.4-.63,93.47c-14.08-21.4-39.73-27.7-39.73-27.7,22.65,7.18,36.52,28.58,39.68,33.91l-.2,30.79c-14.13-21.1-39.48-27.33-39.48-27.33,22.12,7,35.85,27.56,39.44,33.5l-.58,111.32h7.48l-1.82-93.35c4.82-7.3,18.62-25.53,39.93-32,0,0-25.31,6-40.09,26.18l-.83-30.73C381.39,286.78,395.64,266.08,418.66,259.05Z" style="fill:#263238"></path><path d="M418.66,259.05s-26.47,6.27-41.08,27.56l-.83-31,.06.42s14.95-26.91,41.85-35.13c0,0-27.7,6.57-42.06,29.06l-2-75.4-.63,93.47c-14.08-21.4-39.73-27.7-39.73-27.7,22.65,7.18,36.52,28.58,39.68,33.91l-.2,30.79c-14.13-21.1-39.48-27.33-39.48-27.33,22.12,7,35.85,27.56,39.44,33.5l-.58,111.32h7.48l-1.82-93.35c4.82-7.3,18.62-25.53,39.93-32,0,0-25.31,6-40.09,26.18l-.83-30.73C381.39,286.78,395.64,266.08,418.66,259.05Z" style="fill:#fff;opacity:0.6000000000000001"></path><path d="M122.89,258.16s49.37,4.88,74.39,35.48c0,0,26.44-35.45,73.92-34.72a96,96,0,1,0-148.33-.68Z" style="fill:#ededed"></path><path d="M244.81,202.65s-29.51,7-45.8,30.73l-.93-34.52.07.46s16.66-30,46.66-39.17c0,0-30.88,7.33-46.9,32.41l-2.26-84.07L195,212.7c-15.7-23.86-44.3-30.88-44.3-30.88,25.26,8,40.72,31.86,44.25,37.81L194.67,254c-15.75-23.53-44-30.47-44-30.47,24.66,7.8,40,30.72,44,37.34l-.64,159h8.33l-2-138.91c5.38-8.14,20.76-28.46,44.52-35.72,0,0-28.22,6.69-44.7,29.18l-.92-34.25C203.25,233.57,219.15,210.49,244.81,202.65Z" style="fill:#263238"></path><path d="M244.81,202.65s-29.51,7-45.8,30.73l-.93-34.52.07.46s16.66-30,46.66-39.17c0,0-30.88,7.33-46.9,32.41l-2.26-84.07L195,212.7c-15.7-23.86-44.3-30.88-44.3-30.88,25.26,8,40.72,31.86,44.25,37.81L194.67,254c-15.75-23.53-44-30.47-44-30.47,24.66,7.8,40,30.72,44,37.34l-.64,159h8.33l-2-138.91c5.38-8.14,20.76-28.46,44.52-35.72,0,0-28.22,6.69-44.7,29.18l-.92-34.25C203.25,233.57,219.15,210.49,244.81,202.65Z" style="fill:#fff;opacity:0.6000000000000001"></path></g><g id="freepik--Floor--inject-10"><path d="M467.07,423.18l7,.33" style="fill:none;stroke:#263238;stroke-miterlimit:10"></path><path d="M47.5,424.68s26.36-.58,49.21-1.75,63.28-2.35,86.71-2.35,48.05-4.1,97.26,0,80.86,3.52,109,1.76c19.11-1.19,51.22-.22,69.83.52" style="fill:none;stroke:#263238;stroke-miterlimit:10"></path><path d="M195.58,442.5c7.83-.34,20.65-1,37.06-2,28.12-1.75,43.94,2.93,63.86,2.93s28.12.59,34.57.59" style="fill:none;stroke:#263238;stroke-miterlimit:10"></path><path d="M186.94,442.85l4.86-.19" style="fill:none;stroke:#263238;stroke-miterlimit:10"></path><path d="M210.86,459.84h5.37" style="fill:none;stroke:#263238;stroke-miterlimit:10"></path><path d="M76.07,456.22c10.58-1.07,25.44-2.47,33.53-2.83,13.48-.58,45.11,6.45,65.62,6.45h29" style="fill:none;stroke:#263238;stroke-miterlimit:10"></path><path d="M63.9,457.49l5.52-.58" style="fill:none;stroke:#263238;stroke-miterlimit:10"></path><path d="M431.85,456.52c4.29.23,7,.39,7,.39" style="fill:none;stroke:#263238;stroke-miterlimit:10"></path><path d="M284.73,462.18s28.13-1.76,46.87-5.27,39.26-1.76,58.59-1.76c10.67,0,24.37.54,34.51,1" style="fill:none;stroke:#263238;stroke-miterlimit:10"></path></g><g id="freepik--Character--inject-10"><path d="M217.28,303.53s-2.52,16.92,0,29.52,5,24.84,5,24.84-2.16,12.6-.72,23.4,4,35.28,3.24,39.6-5,12.6-11.88,18.72-6.12,9.72-4,11.52,12.6,2.16,17.64.72,10.07-5.76,11.87-6.48,7.56-.36,9-3.24-1.44-19.44-2.16-21.24,2.88-33.48,3.6-42.48.36-23,.36-23,4.32-33.84,2.52-45.36S217.28,303.53,217.28,303.53Z" style="fill:#263238;stroke:#263238;stroke-miterlimit:10"></path><path d="M238.51,445.37c1.8-.72,7.56-.36,9-3.24s-1.44-19.44-2.16-21.24c-.64-1.62,2.19-27.29,3.3-39-8.59,3.13-20.1,1.58-27,.16,1.45,11.12,3.85,34.65,3.15,38.88s-5,12.6-11.88,18.72-6.12,9.72-4,11.52,12.6,2.16,17.64.72S236.71,446.09,238.51,445.37Z" style="fill:#fff;stroke:#263238;stroke-miterlimit:10"></path><path d="M245.76,382.7c-8.14,1.94-17.95.58-24.07-.69.39,3,.85,6.92,1.3,11.12,4.5,1.53,14.41,3.95,24.54,0,.37-3.71.72-7.2,1-10.06C247.76,383,246.83,382.86,245.76,382.7Z" style="fill:#263238;stroke:#263238;stroke-miterlimit:10"></path><path d="M220.52,372.29a103.2,103.2,0,0,0,15.83,2.16,39.15,39.15,0,0,0,14.4-2.16s2.16.72,1.44,3.6-.36,12.24-1.8,14.4-10.08,2.52-16.91,2.52-11.88-1.44-12.6-3.24-1.44-14.4-1.44-14.4S218,373.37,220.52,372.29Z" style="fill:#fff;stroke:#263238;stroke-miterlimit:10"></path><path d="M226.64,451.85c5-1.44,10.07-5.76,11.87-6.48s7.56-.36,9-3.24c.41-.8.47-2.67.34-5a21.14,21.14,0,0,0-12.22,6.06c-4.67,4.68-8.63,6.84-16.91,7.2a17.93,17.93,0,0,1-11.15-3.18,4,4,0,0,0,1.43,3.9C211.16,452.93,221.6,453.29,226.64,451.85Z" style="fill:#fff;stroke:#263238;stroke-miterlimit:10"></path><path d="M295.19,303.53s2.52,16.92,0,29.52-5,24.84-5,24.84,2.16,12.6.72,23.4-4,35.28-3.24,39.6,5,12.6,11.88,18.72,6.12,9.72,4,11.52-12.6,2.16-17.64.72-10.08-5.76-11.88-6.48-7.56-.36-9-3.24,1.44-19.44,2.16-21.24-2.88-33.48-3.6-42.48-.36-23-.36-23-4.32-33.84-2.52-45.36S295.19,303.53,295.19,303.53Z" style="fill:#263238;stroke:#263238;stroke-miterlimit:10"></path><path d="M274,445.37c-1.8-.72-7.56-.36-9-3.24s1.44-19.44,2.16-21.24c.64-1.62-2.19-27.29-3.3-39,8.59,3.13,20.1,1.58,27,.16-1.45,11.12-3.85,34.65-3.14,38.88s5,12.6,11.88,18.72,6.12,9.72,4,11.52-12.6,2.16-17.64.72S275.75,446.09,274,445.37Z" style="fill:#fff;stroke:#263238;stroke-miterlimit:10"></path><path d="M289.34,394.32c.49-4.64,1-9,1.43-12.31-6.86,1.42-18.37,3-27-.16.31,3.3.76,7.7,1.23,12.35C269.92,395.18,280.82,396.83,289.34,394.32Z" style="fill:#263238;stroke:#263238;stroke-miterlimit:10"></path><path d="M292,372.29a103.2,103.2,0,0,1-15.84,2.16,39.15,39.15,0,0,1-14.4-2.16s-2.16.72-1.44,3.6.36,12.24,1.8,14.4,10.08,2.52,16.92,2.52,11.88-1.44,12.6-3.24,1.44-14.4,1.44-14.4S294.47,373.37,292,372.29Z" style="fill:#fff;stroke:#263238;stroke-miterlimit:10"></path><path d="M285.83,451.85c-5-1.44-10.08-5.76-11.88-6.48s-7.56-.36-9-3.24c-.4-.8-.47-2.67-.34-5a21.14,21.14,0,0,1,12.22,6.06c4.68,4.68,8.64,6.84,16.92,7.2a18,18,0,0,0,11.15-3.18,4,4,0,0,1-1.43,3.9C301.31,452.93,290.87,453.29,285.83,451.85Z" style="fill:#fff;stroke:#263238;stroke-miterlimit:10"></path><path d="M334.94,147.11s-.48-7.21,1-10.82,3.37-6.26,7-9.63,6.26-5.29,6.26-4.09a6.07,6.07,0,0,1-1.45,4.33c-1.44,1.93-3.37,5.3-3.37,5.3a22,22,0,0,0,6.5-1,72.3,72.3,0,0,0,7.46-4.09s-1.45-7.21-.48-7.21,5.05,8.9,5.77,10.34h0a2.66,2.66,0,0,1-.23,2.77c-1.82,2.51-5.83,7.81-8.19,9.26-3.13,1.93-10.59,4.57-10.59,4.57l-1,3.85Z" style="fill:#fff;stroke:#263238;stroke-miterlimit:10"></path><path d="M364.21,130.42a16.11,16.11,0,0,0,1.24-4.41c.28-2.35.55-7.45-1-7.32s-1.38,3.18-1.38,5.39S362,130,362,130.42,363.24,132.08,364.21,130.42Z" style="fill:#fff;stroke:#263238;stroke-miterlimit:10"></path><path d="M360.68,135.08s3.61-4.09,3.61-6-.72-10.59-2.4-10.11-.72,9.63-.72,9.63l-.49,3.13Z" style="fill:#fff;stroke:#263238;stroke-miterlimit:10"></path><path d="M340.71,144.71s-.24-1,1.93-4.81,11.07-5.78,12-6,3.61-2.89,3.61-2.89-3.13-6.49-1.69-7,6,6,6,8.66-6.26,7.94-6.26,7.94" style="fill:#fff;stroke:#263238;stroke-miterlimit:10"></path><path d="M328.34,158.88l-9.48,22.45s-13.72-25.69-15.21-26.19-13.72-4.24-13.72-4.24l-10.73-2.49-21.6,4-21.71-4-10.78,2.49s-12.29,3.74-13.79,4.24S196,181.33,196,181.33l-9.53-22.45-17.55,8.73s1.76,11.48,5,20.21,9.78,22.7,10.53,23.7,3.37,2.4,5,1.74c10.48-4.17,27.8-18.31,28.34-18.94l2.75,26.43s-11,26.94-11.53,35.67-4.51,67.85-4.51,67.85,12.78,5.74,25.07,7c4.31.43,16.8,1.21,22.6,1.56l3.66-17.4,3.83,17.36c7.35-.36,21.61-1.1,25.73-1.52,12.22-1.25,24.94-7,24.94-7s-4-59.12-4.49-67.85-11.47-35.67-11.47-35.67l2.74-26.43c.53.63,17.76,14.77,28.19,18.94,1.64.66,4.24-.74,5-1.74s7.23-15,10.48-23.7,5-20.21,5-20.21Z" style="fill:#FFC100;stroke:#263238;stroke-miterlimit:10"></path><path d="M213.2,254.07l35.42,4.54-.91,11.81S238.63,270,235,270s-6.19,1.76-7.55,1.76-5.45-3.18-7.72-4.09a56.24,56.24,0,0,0-8.34-1.76Z" style="fill:#FFC100;stroke:#263238;stroke-miterlimit:10"></path><circle cx="226.73" cy="268.17" r="0.81" style="fill:#FFC100;stroke:#263238;stroke-miterlimit:10"></circle><path d="M300.63,254.07l-35.42,4.54.91,11.81s9.08-.46,12.72-.46,6.18,1.76,7.55,1.76,5.45-3.18,7.72-4.09a56.24,56.24,0,0,1,8.34-1.76Z" style="fill:#FFC100;stroke:#263238;stroke-miterlimit:10"></path><circle cx="287.11" cy="268.17" r="0.81" style="fill:#FFC100;stroke:#263238;stroke-miterlimit:10"></circle><path d="M325.81,164.87c3.26,3.45,10.08,9.43,18,9.17l.78,0c.78-3.72,1.19-6.38,1.19-6.38l-17.47-8.73Z" style="fill:#263238;stroke:#263238;stroke-miterlimit:10"></path><path d="M188.91,164.57l-2.42-5.69-17.55,8.73s.45,2.95,1.32,7a28.13,28.13,0,0,0,8.24-2.79C184.72,168.69,187.68,166,188.91,164.57Z" style="fill:#263238;stroke:#263238;stroke-miterlimit:10"></path><line x1="255.5" y1="170.69" x2="255.5" y2="309.68" style="fill:none;stroke:#263238;stroke-miterlimit:10"></line><line x1="255.5" y1="165.62" x2="255.5" y2="167.99" style="fill:none;stroke:#263238;stroke-miterlimit:10"></line><path d="M261.93,170.91a2.08,2.08,0,1,1-2.08-2.07A2.08,2.08,0,0,1,261.93,170.91Z" style="fill:none;stroke:#263238;stroke-miterlimit:10"></path><path d="M261.93,192.29a2.08,2.08,0,1,1-2.08-2.08A2.07,2.07,0,0,1,261.93,192.29Z" style="fill:none;stroke:#263238;stroke-miterlimit:10"></path><path d="M261.93,213.66a2.08,2.08,0,1,1-2.08-2.07A2.08,2.08,0,0,1,261.93,213.66Z" style="fill:none;stroke:#263238;stroke-miterlimit:10"></path><path d="M261.93,235a2.08,2.08,0,1,1-2.08-2.08A2.08,2.08,0,0,1,261.93,235Z" style="fill:none;stroke:#263238;stroke-miterlimit:10"></path><path d="M261.93,256.41a2.08,2.08,0,1,1-2.08-2.07A2.08,2.08,0,0,1,261.93,256.41Z" style="fill:none;stroke:#263238;stroke-miterlimit:10"></path><path d="M261.93,277.79a2.08,2.08,0,1,1-2.08-2.08A2.08,2.08,0,0,1,261.93,277.79Z" style="fill:none;stroke:#263238;stroke-miterlimit:10"></path><path d="M261.93,299.16a2.08,2.08,0,1,1-2.08-2.08A2.07,2.07,0,0,1,261.93,299.16Z" style="fill:none;stroke:#263238;stroke-miterlimit:10"></path><line x1="298.39" y1="177.07" x2="298.53" y2="174.97" style="fill:none;stroke:#263238;stroke-miterlimit:10"></line><line x1="297.16" y1="194.32" x2="298.18" y2="179.92" style="fill:none;stroke:#263238;stroke-miterlimit:10"></line><line x1="215.07" y1="176.81" x2="214.72" y2="174.6" style="fill:none;stroke:#263238;stroke-miterlimit:10"></line><line x1="217.84" y1="194.32" x2="215.44" y2="179.14" style="fill:none;stroke:#263238;stroke-miterlimit:10"></line><path d="M269.6,158.26l-1.75,78.33s9,.75,14,.5,10.48-3.25,10.48-3.25l-8.23-82.56Z" style="fill:#263238;stroke:#263238;stroke-miterlimit:10"></path><path d="M243,128.48s-6.43.38-9.65.76-3.6,4.35-3.22,6.63-2.46,11-2.46,12.68,1.32,1.51,4.73,3.4,12.11,7.19,22.9,8.71,23.47-2.65,28-4.92,9.46-3.6,9.65-7.19-1.51-7.76-2.46-11.36-3.21-7-5.11-7.19-9.46-.95-14.19-.95S243,128.48,243,128.48Z" style="fill:#263238;stroke:#263238;stroke-miterlimit:10"></path><path d="M240.38,101.8A53.33,53.33,0,0,1,248,93.66c3.6-2.84,10.79-3.78,14.76-3.78a22.47,22.47,0,0,1,10,1.89,18.08,18.08,0,0,1,8.71,8.89A31,31,0,0,1,284.1,112a28.07,28.07,0,0,1-1.14,6.06S273.69,99,266.88,97.26s-17,.94-20.44,3.21l-5.68,3.79Z" style="fill:#FFC100;stroke:#263238;stroke-miterlimit:10"></path><path d="M240.38,125.46a11,11,0,0,0,.57,2.65c.38.75,3.22,1.32,3.22,1.32a16.12,16.12,0,0,0,4.35,8.52c5.11,4.92,11.92,4.54,18.36,4s10.22-7.19,11-8.89a20.53,20.53,0,0,0,1.14-3.41s2.08.95,2.27-5.3-.95-13.63-6.43-19.49-14.77-6.06-24.23-2.65-12.3,14-12.3,15.52S240.38,125.46,240.38,125.46Z" style="fill:#fff;stroke:#263238;stroke-miterlimit:10"></path><path d="M264.79,110.5s-1.51,1.9-1.32,2.65,2.65.38,2.65,2.46a3.27,3.27,0,0,1-3,3.22" style="fill:none;stroke:#263238;stroke-miterlimit:10"></path><path d="M255.52,123.37s1.52,3.22,6.25,3.22,6.24-3,6.24-3" style="fill:none;stroke:#263238;stroke-miterlimit:10"></path><path d="M256.47,113.53a7,7,0,0,0-5.87,1.14" style="fill:none;stroke:#263238;stroke-miterlimit:10"></path><path d="M267.25,113.53a9,9,0,0,1,5.87,1.14" style="fill:none;stroke:#263238;stroke-miterlimit:10"></path><path d="M249.84,109.56s2.27-3.6,8-2.65" style="fill:none;stroke:#263238;stroke-linecap:round;stroke-miterlimit:10;stroke-width:2px"></path><path d="M267.44,107.1a6,6,0,0,1,6.06,3" style="fill:none;stroke:#263238;stroke-linecap:round;stroke-miterlimit:10;stroke-width:2px"></path><path d="M242.65,114.48s1.33,5.68.19,6.24-2.65-2.83-2.65-2.83S241,114.86,242.65,114.48Z" style="fill:#263238;stroke:#263238;stroke-miterlimit:10"></path><path d="M278.23,118.45s-.19,5.68.38,6.06,1.14-1.89,1.14-2.46A22.77,22.77,0,0,0,278.23,118.45Z" style="fill:#263238;stroke:#263238;stroke-miterlimit:10"></path><path d="M264.23,104.83a19,19,0,0,0-13.63,1.7c-7,3.79-10,13.06-10.6,14.76s1.14,4.17-.76,4.54-4-1.51-4-3.59,3.22-10.79,3.22-15.33,3-6.81,4.92-8.33,12.68-6.24,20.06-5.87,15.9,6.82,18.17,10.6,1.7,10,1.7,11.93,1,6.81-.19,9.08-1.7,2.46-1.7,2.46a79.62,79.62,0,0,0-3.22-8.33C276.53,114.86,272.36,105.21,264.23,104.83Z" style="fill:#fff;stroke:#263238;stroke-miterlimit:10"></path><path d="M283.34,155.74c4.54-2.27,9.46-3.6,9.65-7.19s-1.51-7.76-2.46-11.36a15.61,15.61,0,0,0-2.32-5,3.14,3.14,0,0,0-.52-.26c-1.7-.57-2.64.38-4.73,2.08s-10.6,5.3-22.14,4.92S239.06,133,237,131.13s-5.61-.53-6-.39a7.66,7.66,0,0,0-.8,5.13c.38,2.27-2.46,11-2.46,12.68s1.32,1.51,4.73,3.4,12.11,7.19,22.9,8.71S278.8,158,283.34,155.74Z" style="fill:#263238;stroke:#263238;stroke-miterlimit:10"></path><path d="M330.13,148.56s-4.81,10.1-4.81,12.51,12.75,9.62,15.88,10.58,5.29,1,6,.24,4.09-13.47,4.09-16.11-2.65-4.09-5.05-5.3-9.38-5-11.55-5S330.61,145.43,330.13,148.56Z" style="fill:#fff;stroke:#263238;stroke-miterlimit:10"></path><path d="M180.55,147.11s.48-7.21-1-10.82-3.37-6.26-7-9.63-6.25-5.29-6.25-4.09a6.1,6.1,0,0,0,1.44,4.33c1.45,1.93,3.37,5.3,3.37,5.3a22,22,0,0,1-6.5-1,72.94,72.94,0,0,1-7.45-4.09s1.44-7.21.48-7.21-5.06,8.9-5.78,10.34h0a2.68,2.68,0,0,0,.23,2.77c1.82,2.51,5.83,7.81,8.19,9.26,3.13,1.93,10.59,4.57,10.59,4.57l1,3.85Z" style="fill:#fff;stroke:#263238;stroke-miterlimit:10"></path><path d="M151.28,130.42A16.52,16.52,0,0,1,150,126c-.27-2.35-.55-7.45,1-7.32s1.38,3.18,1.38,5.39,1.1,5.93,1.1,6.34S152.25,132.08,151.28,130.42Z" style="fill:#fff;stroke:#263238;stroke-miterlimit:10"></path><path d="M154.81,135.08s-3.61-4.09-3.61-6,.72-10.59,2.41-10.11.72,9.63.72,9.63l.48,3.13Z" style="fill:#fff;stroke:#263238;stroke-miterlimit:10"></path><path d="M174.78,144.71s.24-1-1.93-4.81-11.06-5.78-12-6-3.6-2.89-3.6-2.89,3.12-6.49,1.68-7-6,6-6,8.66,6.25,7.94,6.25,7.94" style="fill:#fff;stroke:#263238;stroke-miterlimit:10"></path><path d="M185.37,148.56s4.81,10.1,4.81,12.51-12.75,9.62-15.88,10.58-5.29,1-6,.24-4.09-13.47-4.09-16.11,2.65-4.09,5.06-5.3,9.38-5,11.54-5S184.88,145.43,185.37,148.56Z" style="fill:#fff;stroke:#263238;stroke-miterlimit:10"></path></g><g id="freepik--Snow--inject-10"><path d="M251.1,224.43a2.38,2.38,0,1,0-3,1.55A2.39,2.39,0,0,0,251.1,224.43Z" style="fill:#fff;stroke:#263238;stroke-miterlimit:10;stroke-width:0.5px"></path><path d="M237.38,179.59a2.38,2.38,0,1,0-3,1.55A2.37,2.37,0,0,0,237.38,179.59Z" style="fill:#fff;stroke:#263238;stroke-miterlimit:10;stroke-width:0.5px"></path><path d="M305.76,168.86a2.38,2.38,0,1,0-3,1.55A2.38,2.38,0,0,0,305.76,168.86Z" style="fill:#fff;stroke:#263238;stroke-miterlimit:10;stroke-width:0.5px"></path><circle cx="279.73" cy="148.58" r="2.38" style="fill:#fff;stroke:#263238;stroke-miterlimit:10;stroke-width:0.5px"></circle><path d="M290.68,200.55a2.38,2.38,0,1,0-3,1.54A2.37,2.37,0,0,0,290.68,200.55Z" style="fill:#fff;stroke:#263238;stroke-miterlimit:10;stroke-width:0.5px"></path><path d="M276.07,241.54a3.65,3.65,0,1,0-4.58,2.38A3.65,3.65,0,0,0,276.07,241.54Z" style="fill:#fff;stroke:#263238;stroke-miterlimit:10;stroke-width:0.5px"></path><path d="M255,172.78a3.65,3.65,0,1,0-4.59,2.37A3.66,3.66,0,0,0,255,172.78Z" style="fill:#fff;stroke:#263238;stroke-miterlimit:10;stroke-width:0.5px"></path><path d="M359.89,156.33a3.65,3.65,0,1,0-4.58,2.37A3.64,3.64,0,0,0,359.89,156.33Z" style="fill:#fff;stroke:#263238;stroke-miterlimit:10;stroke-width:0.5px"></path><path d="M323.46,126.35a3.65,3.65,0,1,0-4.59,2.37A3.65,3.65,0,0,0,323.46,126.35Z" style="fill:#fff;stroke:#263238;stroke-miterlimit:10;stroke-width:0.5px"></path><path d="M336.77,204.92a3.65,3.65,0,1,0-4.58,2.37A3.65,3.65,0,0,0,336.77,204.92Z" style="fill:#fff;stroke:#263238;stroke-miterlimit:10;stroke-width:0.5px"></path><path d="M175.66,116a2.38,2.38,0,1,0-3,1.55A2.38,2.38,0,0,0,175.66,116Z" style="fill:#fff;stroke:#263238;stroke-miterlimit:10;stroke-width:0.5px"></path><path d="M161.94,71.12a2.38,2.38,0,1,0-3,1.55A2.38,2.38,0,0,0,161.94,71.12Z" style="fill:#fff;stroke:#263238;stroke-miterlimit:10;stroke-width:0.5px"></path><path d="M230.33,60.4a2.38,2.38,0,1,0-3,1.54A2.38,2.38,0,0,0,230.33,60.4Z" style="fill:#fff;stroke:#263238;stroke-miterlimit:10;stroke-width:0.5px"></path><path d="M206.56,40.84a2.38,2.38,0,1,0-3,1.55A2.38,2.38,0,0,0,206.56,40.84Z" style="fill:#fff;stroke:#263238;stroke-miterlimit:10;stroke-width:0.5px"></path><path d="M215.25,92.08a2.38,2.38,0,1,0-3,1.55A2.39,2.39,0,0,0,215.25,92.08Z" style="fill:#fff;stroke:#263238;stroke-miterlimit:10;stroke-width:0.5px"></path><path d="M200.64,133.08a3.65,3.65,0,1,0-4.59,2.37A3.65,3.65,0,0,0,200.64,133.08Z" style="fill:#fff;stroke:#263238;stroke-miterlimit:10;stroke-width:0.5px"></path><path d="M179.6,64.31A3.65,3.65,0,1,0,175,66.69,3.65,3.65,0,0,0,179.6,64.31Z" style="fill:#fff;stroke:#263238;stroke-miterlimit:10;stroke-width:0.5px"></path><path d="M284.46,47.87a3.65,3.65,0,1,0-4.59,2.37A3.65,3.65,0,0,0,284.46,47.87Z" style="fill:#fff;stroke:#263238;stroke-miterlimit:10;stroke-width:0.5px"></path><path d="M261.33,96.45a3.65,3.65,0,1,0-4.58,2.37A3.64,3.64,0,0,0,261.33,96.45Z" style="fill:#fff;stroke:#263238;stroke-miterlimit:10;stroke-width:0.5px"></path><path d="M344.19,137.61a2.38,2.38,0,1,0-3,1.55A2.38,2.38,0,0,0,344.19,137.61Z" style="fill:#fff;stroke:#263238;stroke-miterlimit:10;stroke-width:0.5px"></path><path d="M330.48,92.76a2.38,2.38,0,1,0-3,1.55A2.39,2.39,0,0,0,330.48,92.76Z" style="fill:#fff;stroke:#263238;stroke-miterlimit:10;stroke-width:0.5px"></path><path d="M398.86,82a2.38,2.38,0,1,0-3,1.54A2.37,2.37,0,0,0,398.86,82Z" style="fill:#fff;stroke:#263238;stroke-miterlimit:10;stroke-width:0.5px"></path><path d="M375.1,62.48a2.38,2.38,0,1,0-3,1.55A2.39,2.39,0,0,0,375.1,62.48Z" style="fill:#fff;stroke:#263238;stroke-miterlimit:10;stroke-width:0.5px"></path><path d="M383.78,113.72a2.38,2.38,0,1,0-3,1.55A2.38,2.38,0,0,0,383.78,113.72Z" style="fill:#fff;stroke:#263238;stroke-miterlimit:10;stroke-width:0.5px"></path><path d="M369.17,154.72a3.65,3.65,0,1,0-4.59,2.37A3.66,3.66,0,0,0,369.17,154.72Z" style="fill:#fff;stroke:#263238;stroke-miterlimit:10;stroke-width:0.5px"></path><path d="M348.14,86a3.65,3.65,0,1,0-4.59,2.38A3.64,3.64,0,0,0,348.14,86Z" style="fill:#fff;stroke:#263238;stroke-miterlimit:10;stroke-width:0.5px"></path><path d="M453,69.51a3.65,3.65,0,1,0-4.59,2.37A3.66,3.66,0,0,0,453,69.51Z" style="fill:#fff;stroke:#263238;stroke-miterlimit:10;stroke-width:0.5px"></path><path d="M429.87,118.09a3.65,3.65,0,1,0-4.59,2.37A3.65,3.65,0,0,0,429.87,118.09Z" style="fill:#fff;stroke:#263238;stroke-miterlimit:10;stroke-width:0.5px"></path><path d="M324.45,312.75a2.38,2.38,0,1,0-3,1.54A2.38,2.38,0,0,0,324.45,312.75Z" style="fill:#fff;stroke:#263238;stroke-miterlimit:10;stroke-width:0.5px"></path><path d="M310.73,267.9a2.38,2.38,0,1,0-3,1.55A2.38,2.38,0,0,0,310.73,267.9Z" style="fill:#fff;stroke:#263238;stroke-miterlimit:10;stroke-width:0.5px"></path><path d="M379.12,257.17a2.38,2.38,0,1,0-3,1.55A2.39,2.39,0,0,0,379.12,257.17Z" style="fill:#fff;stroke:#263238;stroke-miterlimit:10;stroke-width:0.5px"></path><path d="M355.35,237.62a2.38,2.38,0,1,0-3,1.54A2.37,2.37,0,0,0,355.35,237.62Z" style="fill:#fff;stroke:#263238;stroke-miterlimit:10;stroke-width:0.5px"></path><path d="M364,288.86a2.38,2.38,0,1,0-3,1.55A2.38,2.38,0,0,0,364,288.86Z" style="fill:#fff;stroke:#263238;stroke-miterlimit:10;stroke-width:0.5px"></path><path d="M349.43,329.85a3.65,3.65,0,1,0-4.59,2.38A3.65,3.65,0,0,0,349.43,329.85Z" style="fill:#fff;stroke:#263238;stroke-miterlimit:10;stroke-width:0.5px"></path><path d="M328.39,261.09a3.65,3.65,0,1,0-4.58,2.37A3.65,3.65,0,0,0,328.39,261.09Z" style="fill:#fff;stroke:#263238;stroke-miterlimit:10;stroke-width:0.5px"></path><path d="M433.25,244.64a3.65,3.65,0,1,0-4.59,2.38A3.65,3.65,0,0,0,433.25,244.64Z" style="fill:#fff;stroke:#263238;stroke-miterlimit:10;stroke-width:0.5px"></path><path d="M396.81,214.66a3.65,3.65,0,1,0-4.59,2.37A3.66,3.66,0,0,0,396.81,214.66Z" style="fill:#fff;stroke:#263238;stroke-miterlimit:10;stroke-width:0.5px"></path><path d="M410.13,293.23a3.65,3.65,0,1,0-4.59,2.37A3.65,3.65,0,0,0,410.13,293.23Z" style="fill:#fff;stroke:#263238;stroke-miterlimit:10;stroke-width:0.5px"></path><path d="M273.91,471.58a2.38,2.38,0,1,0-3,1.55A2.38,2.38,0,0,0,273.91,471.58Z" style="fill:#fff;stroke:#263238;stroke-miterlimit:10;stroke-width:0.5px"></path><path d="M260.19,426.74a2.38,2.38,0,1,0-3,1.54A2.38,2.38,0,0,0,260.19,426.74Z" style="fill:#fff;stroke:#263238;stroke-miterlimit:10;stroke-width:0.5px"></path><path d="M328.58,416a2.38,2.38,0,1,0-3,1.55A2.39,2.39,0,0,0,328.58,416Z" style="fill:#fff;stroke:#263238;stroke-miterlimit:10;stroke-width:0.5px"></path><path d="M304.81,396.46a2.38,2.38,0,1,0-3,1.54A2.39,2.39,0,0,0,304.81,396.46Z" style="fill:#fff;stroke:#263238;stroke-miterlimit:10;stroke-width:0.5px"></path><path d="M313.5,447.7a2.38,2.38,0,1,0-3,1.54A2.38,2.38,0,0,0,313.5,447.7Z" style="fill:#fff;stroke:#263238;stroke-miterlimit:10;stroke-width:0.5px"></path><path d="M277.85,419.93a3.65,3.65,0,1,0-4.58,2.37A3.66,3.66,0,0,0,277.85,419.93Z" style="fill:#fff;stroke:#263238;stroke-miterlimit:10;stroke-width:0.5px"></path><path d="M382.71,403.48a3.65,3.65,0,1,0-4.59,2.37A3.65,3.65,0,0,0,382.71,403.48Z" style="fill:#fff;stroke:#263238;stroke-miterlimit:10;stroke-width:0.5px"></path><path d="M346.27,373.5a3.65,3.65,0,1,0-4.59,2.37A3.65,3.65,0,0,0,346.27,373.5Z" style="fill:#fff;stroke:#263238;stroke-miterlimit:10;stroke-width:0.5px"></path><path d="M359.59,452.07a3.65,3.65,0,1,0-4.59,2.37A3.66,3.66,0,0,0,359.59,452.07Z" style="fill:#fff;stroke:#263238;stroke-miterlimit:10;stroke-width:0.5px"></path><path d="M193.21,374.94a2.38,2.38,0,1,0-3,1.55A2.38,2.38,0,0,0,193.21,374.94Z" style="fill:#fff;stroke:#263238;stroke-miterlimit:10;stroke-width:0.5px"></path><path d="M179.5,330.09a2.38,2.38,0,1,0-3,1.55A2.39,2.39,0,0,0,179.5,330.09Z" style="fill:#fff;stroke:#263238;stroke-miterlimit:10;stroke-width:0.5px"></path><path d="M247.88,319.37a2.38,2.38,0,1,0-3,1.54A2.37,2.37,0,0,0,247.88,319.37Z" style="fill:#fff;stroke:#263238;stroke-miterlimit:10;stroke-width:0.5px"></path><path d="M224.12,299.81a2.38,2.38,0,1,0-3,1.55A2.39,2.39,0,0,0,224.12,299.81Z" style="fill:#fff;stroke:#263238;stroke-miterlimit:10;stroke-width:0.5px"></path><path d="M232.8,351.05a2.38,2.38,0,1,0-3,1.55A2.38,2.38,0,0,0,232.8,351.05Z" style="fill:#fff;stroke:#263238;stroke-miterlimit:10;stroke-width:0.5px"></path><path d="M218.19,392.05a3.65,3.65,0,1,0-4.59,2.37A3.66,3.66,0,0,0,218.19,392.05Z" style="fill:#fff;stroke:#263238;stroke-miterlimit:10;stroke-width:0.5px"></path><path d="M197.16,323.28a3.65,3.65,0,1,0-4.59,2.38A3.65,3.65,0,0,0,197.16,323.28Z" style="fill:#fff;stroke:#263238;stroke-miterlimit:10;stroke-width:0.5px"></path><path d="M302,306.84a3.65,3.65,0,1,0-4.59,2.37A3.66,3.66,0,0,0,302,306.84Z" style="fill:#fff;stroke:#263238;stroke-miterlimit:10;stroke-width:0.5px"></path><path d="M265.57,276.85a3.65,3.65,0,1,0-4.58,2.37A3.66,3.66,0,0,0,265.57,276.85Z" style="fill:#fff;stroke:#263238;stroke-miterlimit:10;stroke-width:0.5px"></path><path d="M278.89,355.42a3.65,3.65,0,1,0-4.59,2.37A3.66,3.66,0,0,0,278.89,355.42Z" style="fill:#fff;stroke:#263238;stroke-miterlimit:10;stroke-width:0.5px"></path><path d="M106,284.71a2.38,2.38,0,1,0-3,1.55A2.39,2.39,0,0,0,106,284.71Z" style="fill:#fff;stroke:#263238;stroke-miterlimit:10;stroke-width:0.5px"></path><path d="M92.26,239.86a2.38,2.38,0,1,0-3,1.55A2.39,2.39,0,0,0,92.26,239.86Z" style="fill:#fff;stroke:#263238;stroke-miterlimit:10;stroke-width:0.5px"></path><path d="M160.64,229.14a2.38,2.38,0,1,0-3,1.54A2.37,2.37,0,0,0,160.64,229.14Z" style="fill:#fff;stroke:#263238;stroke-miterlimit:10;stroke-width:0.5px"></path><path d="M136.88,209.58a2.38,2.38,0,1,0-3,1.55A2.39,2.39,0,0,0,136.88,209.58Z" style="fill:#fff;stroke:#263238;stroke-miterlimit:10;stroke-width:0.5px"></path><path d="M145.56,260.82a2.38,2.38,0,1,0-3,1.55A2.38,2.38,0,0,0,145.56,260.82Z" style="fill:#fff;stroke:#263238;stroke-miterlimit:10;stroke-width:0.5px"></path><path d="M131,301.82a3.65,3.65,0,1,0-4.58,2.37A3.66,3.66,0,0,0,131,301.82Z" style="fill:#fff;stroke:#263238;stroke-miterlimit:10;stroke-width:0.5px"></path><path d="M109.92,233.05a3.65,3.65,0,1,0-4.59,2.38A3.65,3.65,0,0,0,109.92,233.05Z" style="fill:#fff;stroke:#263238;stroke-miterlimit:10;stroke-width:0.5px"></path><path d="M214.77,216.61a3.65,3.65,0,1,0-4.58,2.37A3.66,3.66,0,0,0,214.77,216.61Z" style="fill:#fff;stroke:#263238;stroke-miterlimit:10;stroke-width:0.5px"></path><path d="M178.33,186.62a3.65,3.65,0,1,0-4.58,2.37A3.64,3.64,0,0,0,178.33,186.62Z" style="fill:#fff;stroke:#263238;stroke-miterlimit:10;stroke-width:0.5px"></path><path d="M191.65,265.19a3.65,3.65,0,1,0-4.59,2.37A3.65,3.65,0,0,0,191.65,265.19Z" style="fill:#fff;stroke:#263238;stroke-miterlimit:10;stroke-width:0.5px"></path><path d="M59.85,194.07a2.38,2.38,0,1,0-3,1.55A2.37,2.37,0,0,0,59.85,194.07Z" style="fill:#fff;stroke:#263238;stroke-miterlimit:10;stroke-width:0.5px"></path><path d="M46.13,149.22a2.38,2.38,0,1,0-3,1.55A2.38,2.38,0,0,0,46.13,149.22Z" style="fill:#fff;stroke:#263238;stroke-miterlimit:10;stroke-width:0.5px"></path><path d="M114.52,138.5a2.38,2.38,0,1,0-3,1.54A2.39,2.39,0,0,0,114.52,138.5Z" style="fill:#fff;stroke:#263238;stroke-miterlimit:10;stroke-width:0.5px"></path><path d="M90.75,118.94a2.38,2.38,0,1,0-3,1.55A2.38,2.38,0,0,0,90.75,118.94Z" style="fill:#fff;stroke:#263238;stroke-miterlimit:10;stroke-width:0.5px"></path><path d="M99.44,170.18a2.38,2.38,0,1,0-3,1.55A2.39,2.39,0,0,0,99.44,170.18Z" style="fill:#fff;stroke:#263238;stroke-miterlimit:10;stroke-width:0.5px"></path><path d="M84.83,211.18a3.65,3.65,0,1,0-4.59,2.37A3.65,3.65,0,0,0,84.83,211.18Z" style="fill:#fff;stroke:#263238;stroke-miterlimit:10;stroke-width:0.5px"></path><path d="M63.79,142.41a3.65,3.65,0,1,0-4.58,2.38A3.65,3.65,0,0,0,63.79,142.41Z" style="fill:#fff;stroke:#263238;stroke-miterlimit:10;stroke-width:0.5px"></path><path d="M168.65,126a3.65,3.65,0,1,0-4.59,2.37A3.65,3.65,0,0,0,168.65,126Z" style="fill:#fff;stroke:#263238;stroke-miterlimit:10;stroke-width:0.5px"></path><path d="M132.21,96a3.65,3.65,0,1,0-4.59,2.37A3.66,3.66,0,0,0,132.21,96Z" style="fill:#fff;stroke:#263238;stroke-miterlimit:10;stroke-width:0.5px"></path><path d="M145.53,174.55a3.65,3.65,0,1,0-4.59,2.37A3.65,3.65,0,0,0,145.53,174.55Z" style="fill:#fff;stroke:#263238;stroke-miterlimit:10;stroke-width:0.5px"></path><path d="M82.46,52.33a2.38,2.38,0,1,0-3,1.55A2.38,2.38,0,0,0,82.46,52.33Z" style="fill:#fff;stroke:#263238;stroke-miterlimit:10;stroke-width:0.5px"></path><path d="M107.44,69.44a3.65,3.65,0,1,0-4.59,2.37A3.65,3.65,0,0,0,107.44,69.44Z" style="fill:#fff;stroke:#263238;stroke-miterlimit:10;stroke-width:0.5px"></path><path d="M59.4,336.86a2.38,2.38,0,1,0-3,1.55A2.38,2.38,0,0,0,59.4,336.86Z" style="fill:#fff;stroke:#263238;stroke-miterlimit:10;stroke-width:0.5px"></path><path d="M35.63,317.3a2.38,2.38,0,1,0-3,1.55A2.38,2.38,0,0,0,35.63,317.3Z" style="fill:#fff;stroke:#263238;stroke-miterlimit:10;stroke-width:0.5px"></path><path d="M44.32,368.54a2.38,2.38,0,1,0-3,1.55A2.39,2.39,0,0,0,44.32,368.54Z" style="fill:#fff;stroke:#263238;stroke-miterlimit:10;stroke-width:0.5px"></path><path d="M113.53,324.33a3.65,3.65,0,1,0-4.59,2.37A3.66,3.66,0,0,0,113.53,324.33Z" style="fill:#fff;stroke:#263238;stroke-miterlimit:10;stroke-width:0.5px"></path><path d="M77.09,294.34a3.65,3.65,0,1,0-4.59,2.38A3.65,3.65,0,0,0,77.09,294.34Z" style="fill:#fff;stroke:#263238;stroke-miterlimit:10;stroke-width:0.5px"></path><path d="M90.41,372.91a3.65,3.65,0,1,0-4.59,2.37A3.65,3.65,0,0,0,90.41,372.91Z" style="fill:#fff;stroke:#263238;stroke-miterlimit:10;stroke-width:0.5px"></path><path d="M370,458.67a2.38,2.38,0,1,0-3,1.55A2.39,2.39,0,0,0,370,458.67Z" style="fill:#fff;stroke:#263238;stroke-miterlimit:10;stroke-width:0.5px"></path><path d="M414.6,428.39a2.38,2.38,0,1,0-3,1.55A2.39,2.39,0,0,0,414.6,428.39Z" style="fill:#fff;stroke:#263238;stroke-miterlimit:10;stroke-width:0.5px"></path><path d="M387.64,451.86a3.65,3.65,0,1,0-4.59,2.38A3.64,3.64,0,0,0,387.64,451.86Z" style="fill:#fff;stroke:#263238;stroke-miterlimit:10;stroke-width:0.5px"></path><path d="M456.05,405.43a3.65,3.65,0,1,0-4.58,2.37A3.65,3.65,0,0,0,456.05,405.43Z" style="fill:#fff;stroke:#263238;stroke-miterlimit:10;stroke-width:0.5px"></path><path d="M420.15,377.74a2.38,2.38,0,1,0-3,1.55A2.38,2.38,0,0,0,420.15,377.74Z" style="fill:#fff;stroke:#263238;stroke-miterlimit:10;stroke-width:0.5px"></path><path d="M396.39,358.19a2.38,2.38,0,1,0-3,1.55A2.38,2.38,0,0,0,396.39,358.19Z" style="fill:#fff;stroke:#263238;stroke-miterlimit:10;stroke-width:0.5px"></path><path d="M474.28,365.21a3.65,3.65,0,1,0-4.58,2.38A3.65,3.65,0,0,0,474.28,365.21Z" style="fill:#fff;stroke:#263238;stroke-miterlimit:10;stroke-width:0.5px"></path><path d="M437.84,335.23a3.65,3.65,0,1,0-4.58,2.37A3.65,3.65,0,0,0,437.84,335.23Z" style="fill:#fff;stroke:#263238;stroke-miterlimit:10;stroke-width:0.5px"></path><path d="M80.87,420.16a2.38,2.38,0,1,0-3,1.54A2.38,2.38,0,0,0,80.87,420.16Z" style="fill:#fff;stroke:#263238;stroke-miterlimit:10;stroke-width:0.5px"></path><path d="M149.25,409.43a2.38,2.38,0,1,0-3,1.55A2.38,2.38,0,0,0,149.25,409.43Z" style="fill:#fff;stroke:#263238;stroke-miterlimit:10;stroke-width:0.5px"></path><path d="M125.49,389.87a2.38,2.38,0,1,0-3,1.55A2.38,2.38,0,0,0,125.49,389.87Z" style="fill:#fff;stroke:#263238;stroke-miterlimit:10;stroke-width:0.5px"></path><path d="M134.17,441.11a2.38,2.38,0,1,0-3,1.55A2.38,2.38,0,0,0,134.17,441.11Z" style="fill:#fff;stroke:#263238;stroke-miterlimit:10;stroke-width:0.5px"></path><path d="M98.53,413.35a3.65,3.65,0,1,0-4.59,2.37A3.66,3.66,0,0,0,98.53,413.35Z" style="fill:#fff;stroke:#263238;stroke-miterlimit:10;stroke-width:0.5px"></path><path d="M203.38,396.9a3.65,3.65,0,1,0-4.58,2.37A3.65,3.65,0,0,0,203.38,396.9Z" style="fill:#fff;stroke:#263238;stroke-miterlimit:10;stroke-width:0.5px"></path><path d="M167,366.91a3.65,3.65,0,1,0-4.59,2.38A3.64,3.64,0,0,0,167,366.91Z" style="fill:#fff;stroke:#263238;stroke-miterlimit:10;stroke-width:0.5px"></path><path d="M180.26,445.48a3.65,3.65,0,1,0-4.58,2.38A3.65,3.65,0,0,0,180.26,445.48Z" style="fill:#fff;stroke:#263238;stroke-miterlimit:10;stroke-width:0.5px"></path><path d="M469.33,212.41a2.38,2.38,0,1,0-3,1.55A2.39,2.39,0,0,0,469.33,212.41Z" style="fill:#fff;stroke:#263238;stroke-miterlimit:10;stroke-width:0.5px"></path><path d="M455.61,167.56a2.38,2.38,0,1,0-3,1.55A2.39,2.39,0,0,0,455.61,167.56Z" style="fill:#fff;stroke:#263238;stroke-miterlimit:10;stroke-width:0.5px"></path><path d="M473.27,160.75a3.65,3.65,0,1,0-4.59,2.38A3.65,3.65,0,0,0,473.27,160.75Z" style="fill:#fff;stroke:#263238;stroke-miterlimit:10;stroke-width:0.5px"></path></g></svg>